HIERARCHY
ROOT root
{
	OFFSET 0.000000 0.054209 0.736571
	CHANNELS 6 Xposition Yposition Zposition Xrotation Yrotation Zrotation
	JOINT spine04
	{
		OFFSET 0.000000 -0.030951 0.078753
		CHANNELS 6 Xposition Yposition Zposition Xrotation Yrotation Zrotation
		JOINT spine02
		{
			OFFSET 0.000000 -0.000238 0.104623
			CHANNELS 6 Xposition Yposition Zposition Xrotation Yrotation Zrotation
			JOINT spine01
			{
				OFFSET 0.000000 0.017421 0.109292
				CHANNELS 3 Xrotation Yrotation Zrotation
				JOINT neck01
				{
					OFFSET 0.000000 -0.049753 0.167208
					CHANNELS 6 Xposition Yposition Zposition Xrotation Yrotation Zrotation
					JOINT neck02
					{
						OFFSET 0.000000 0.005512 0.021217
						CHANNELS 3 Xrotation Yrotation Zrotation
						JOINT jaw
						{
							OFFSET 0.000000 -0.043573 0.063270
							CHANNELS 6 Xposition Yposition Zposition Xrotation Yrotation Zrotation
							End Site
							{
								OFFSET 0.000000 -0.008973 0.006556
							}
						}
						JOINT eye.L
						{
							OFFSET 0.023675 -0.098122 0.090003
							CHANNELS 3 Xrotation Yrotation Zrotation
							End Site
							{
								OFFSET 0.001819 -0.030370 -0.004421
							}
						}
						JOINT orbicularis03.L
						{
							OFFSET 0.023675 -0.098122 0.090003
							CHANNELS 3 Xrotation Yrotation Zrotation
							End Site
							{
								OFFSET 0.001761 -0.029014 0.005250
							}
						}
						JOINT eye.R
						{
							OFFSET -0.023674 -0.098122 0.090003
							CHANNELS 3 Xrotation Yrotation Zrotation
							End Site
							{
								OFFSET -0.001819 -0.030370 -0.004421
							}
						}
						JOINT orbicularis03.R
						{
							OFFSET -0.023674 -0.098122 0.090003
							CHANNELS 3 Xrotation Yrotation Zrotation
							End Site
							{
								OFFSET -0.001761 -0.029014 0.005250
							}
						}
						End Site
						{
							OFFSET 0.000000 0.005512 0.021217
						}
					}
				}
				JOINT clavicle.R
				{
					OFFSET -0.018367 -0.058464 0.107155
					CHANNELS 6 Xposition Yposition Zposition Xrotation Yrotation Zrotation
					JOINT upperarm01.R
					{
						OFFSET -0.132020 0.003642 -0.024313
						CHANNELS 6 Xposition Yposition Zposition Xrotation Yrotation Zrotation
						JOINT lowerarm01.R
						{
							OFFSET -0.133638 0.001770 -0.153088
							CHANNELS 6 Xposition Yposition Zposition Xrotation Yrotation Zrotation
							JOINT wrist.R
							{
								OFFSET -0.108574 -0.154815 -0.103768
								CHANNELS 6 Xposition Yposition Zposition Xrotation Yrotation Zrotation
								JOINT finger2-1.R
								{
									OFFSET -0.024321 -0.084906 -0.032804
									CHANNELS 3 Xrotation Yrotation Zrotation
									JOINT finger2-2.R
									{
										OFFSET -0.002927 -0.018837 -0.012653
										CHANNELS 3 Xrotation Yrotation Zrotation
										JOINT finger2-3.R
										{
											OFFSET 0.000460 -0.015088 -0.013862
											CHANNELS 3 Xrotation Yrotation Zrotation
											End Site
											{
												OFFSET 0.003042 -0.016084 -0.016987
											}
										}
									}
								}
								JOINT finger3-1.R
								{
									OFFSET -0.038828 -0.069770 -0.043126
									CHANNELS 3 Xrotation Yrotation Zrotation
									JOINT finger3-2.R
									{
										OFFSET -0.006387 -0.018854 -0.022184
										CHANNELS 3 Xrotation Yrotation Zrotation
										JOINT finger3-3.R
										{
											OFFSET -0.002379 -0.015757 -0.018305
											CHANNELS 3 Xrotation Yrotation Zrotation
											End Site
											{
												OFFSET 0.000156 -0.013802 -0.019326
											}
										}
									}
								}
								JOINT finger4-1.R
								{
									OFFSET -0.045586 -0.054771 -0.050312
									CHANNELS 3 Xrotation Yrotation Zrotation
									JOINT finger4-2.R
									{
										OFFSET -0.008217 -0.013209 -0.021152
										CHANNELS 3 Xrotation Yrotation Zrotation
										JOINT finger4-3.R
										{
											OFFSET -0.003839 -0.011895 -0.018031
											CHANNELS 3 Xrotation Yrotation Zrotation
											End Site
											{
												OFFSET -0.002024 -0.010563 -0.020894
											}
										}
									}
								}
								JOINT finger5-1.R
								{
									OFFSET -0.046820 -0.037780 -0.058682
									CHANNELS 3 Xrotation Yrotation Zrotation
									JOINT finger5-2.R
									{
										OFFSET -0.005233 -0.007322 -0.016539
										CHANNELS 3 Xrotation Yrotation Zrotation
										JOINT finger5-3.R
										{
											OFFSET -0.001524 -0.005484 -0.012548
											CHANNELS 3 Xrotation Yrotation Zrotation
											End Site
											{
												OFFSET -0.002248 -0.006725 -0.016024
											}
										}
									}
								}
								JOINT finger1-1.R
								{
									OFFSET -0.000927 -0.039280 -0.005363
									CHANNELS 3 Xrotation Yrotation Zrotation
									JOINT finger1-2.R
									{
										OFFSET 0.018386 -0.018805 -0.006895
										CHANNELS 3 Xrotation Yrotation Zrotation
										JOINT finger1-3.R
										{
											OFFSET 0.010991 -0.028095 -0.011249
											CHANNELS 3 Xrotation Yrotation Zrotation
											End Site
											{
												OFFSET 0.004840 -0.019091 -0.014527
											}
										}
									}
								}
							}
						}
					}
				}
				JOINT clavicle.L
				{
					OFFSET 0.018367 -0.058464 0.107155
					CHANNELS 6 Xposition Yposition Zposition Xrotation Yrotation Zrotation
					JOINT upperarm01.L
					{
						OFFSET 0.132020 0.003642 -0.024313
						CHANNELS 6 Xposition Yposition Zposition Xrotation Yrotation Zrotation
						JOINT lowerarm01.L
						{
							OFFSET 0.133638 0.001770 -0.153088
							CHANNELS 6 Xposition Yposition Zposition Xrotation Yrotation Zrotation
							JOINT wrist.L
							{
								OFFSET 0.108574 -0.154814 -0.103768
								CHANNELS 6 Xposition Yposition Zposition Xrotation Yrotation Zrotation
								JOINT finger2-1.L
								{
									OFFSET 0.024321 -0.084906 -0.032804
									CHANNELS 3 Xrotation Yrotation Zrotation
									JOINT finger2-2.L
									{
										OFFSET 0.002927 -0.018838 -0.012653
										CHANNELS 3 Xrotation Yrotation Zrotation
										JOINT finger2-3.L
										{
											OFFSET -0.000460 -0.015088 -0.013862
											CHANNELS 3 Xrotation Yrotation Zrotation
											End Site
											{
												OFFSET -0.003042 -0.016083 -0.016987
											}
										}
									}
								}
								JOINT finger3-1.L
								{
									OFFSET 0.038828 -0.069770 -0.043126
									CHANNELS 3 Xrotation Yrotation Zrotation
									JOINT finger3-2.L
									{
										OFFSET 0.006387 -0.018854 -0.022184
										CHANNELS 3 Xrotation Yrotation Zrotation
										JOINT finger3-3.L
										{
											OFFSET 0.002379 -0.015757 -0.018305
											CHANNELS 3 Xrotation Yrotation Zrotation
											End Site
											{
												OFFSET -0.000156 -0.013802 -0.019326
											}
										}
									}
								}
								JOINT finger4-1.L
								{
									OFFSET 0.045586 -0.054771 -0.050312
									CHANNELS 3 Xrotation Yrotation Zrotation
									JOINT finger4-2.L
									{
										OFFSET 0.008217 -0.013209 -0.021152
										CHANNELS 3 Xrotation Yrotation Zrotation
										JOINT finger4-3.L
										{
											OFFSET 0.003838 -0.011895 -0.018031
											CHANNELS 3 Xrotation Yrotation Zrotation
											End Site
											{
												OFFSET 0.002024 -0.010563 -0.020894
											}
										}
									}
								}
								JOINT finger5-1.L
								{
									OFFSET 0.046820 -0.037780 -0.058682
									CHANNELS 3 Xrotation Yrotation Zrotation
									JOINT finger5-2.L
									{
										OFFSET 0.005234 -0.007322 -0.016539
										CHANNELS 3 Xrotation Yrotation Zrotation
										JOINT finger5-3.L
										{
											OFFSET 0.001524 -0.005484 -0.012548
											CHANNELS 3 Xrotation Yrotation Zrotation
											End Site
											{
												OFFSET 0.002248 -0.006725 -0.016024
											}
										}
									}
								}
								JOINT finger1-1.L
								{
									OFFSET 0.000927 -0.039280 -0.005363
									CHANNELS 3 Xrotation Yrotation Zrotation
									JOINT finger1-2.L
									{
										OFFSET -0.018386 -0.018805 -0.006895
										CHANNELS 3 Xrotation Yrotation Zrotation
										JOINT finger1-3.L
										{
											OFFSET -0.010991 -0.028095 -0.011249
											CHANNELS 3 Xrotation Yrotation Zrotation
											End Site
											{
												OFFSET -0.004839 -0.019091 -0.014527
											}
										}
									}
								}
							}
						}
					}
				}
			}
		}
	}
	JOINT upperleg01.R
	{
		OFFSET -0.087495 -0.048056 0.004242
		CHANNELS 6 Xposition Yposition Zposition Xrotation Yrotation Zrotation
		JOINT lowerleg01.R
		{
			OFFSET -0.034522 -0.027831 -0.333803
			CHANNELS 6 Xposition Yposition Zposition Xrotation Yrotation Zrotation
			JOINT foot.R
			{
				OFFSET -0.037458 0.009412 -0.349633
				CHANNELS 3 Xrotation Yrotation Zrotation
				JOINT toe1-1.R
				{
					OFFSET -0.003290 -0.101211 -0.050981
					CHANNELS 6 Xposition Yposition Zposition Xrotation Yrotation Zrotation
					End Site
					{
						OFFSET 0.000524 -0.066142 0.003009
					}
				}
			}
		}
	}
	JOINT upperleg01.L
	{
		OFFSET 0.087495 -0.048056 0.004242
		CHANNELS 6 Xposition Yposition Zposition Xrotation Yrotation Zrotation
		JOINT lowerleg01.L
		{
			OFFSET 0.034522 -0.027831 -0.333803
			CHANNELS 6 Xposition Yposition Zposition Xrotation Yrotation Zrotation
			JOINT foot.L
			{
				OFFSET 0.037458 0.009412 -0.349633
				CHANNELS 3 Xrotation Yrotation Zrotation
				JOINT toe1-1.L
				{
					OFFSET 0.003290 -0.101211 -0.050981
					CHANNELS 6 Xposition Yposition Zposition Xrotation Yrotation Zrotation
					End Site
					{
						OFFSET -0.000524 -0.066142 0.003009
					}
				}
			}
		}
	}
}
MOTION
Frames: 7
Frame Time:	0.016667
0 0.0542 0.7366 0 0 0 0 -0.0506 0.0788 0 0 0 0 -0.0232 0.1046 0 0 0 0 0 0 0 -0.0498 0.1672 0 0 0 0 0 0 0 -0.0436 0.0633 0 0 0 0 0 0 0 0 0 0 0 0 0 0 0 -0.0184 -0.0585 0.1072 0 0 0 -0.1356 -0.0037 -0.0169 0 0 0 -0.1336 0.0018 -0.1531 0 0 0 -0.1086 -0.1548 -0.1038 0 0 0 0 0 0 0 0 0 0 0 0 0 0 0 0 0 0 0 0 0 0 0 0 0 0 0 0 0 0 0 0 0 0 0 0 0 0 0 0 0 0 0 0 0 0 0 0 0.0184 -0.0585 0.1072 0 0 0 0.1356 -0.0037 -0.0169 0 0 0 0.1336 0.0018 -0.1531 0 0 0 0.1086 -0.1548 -0.1038 0 0 0 0 0 0 0 0 0 0 0 0 0 0 0 0 0 0 0 0 0 0 0 0 0 0 0 0 0 0 0 0 0 0 0 0 0 0 0 0 0 0 0 0 0 0 0 0 -0.0875 -0.0481 0.0042 0 0 0 -0.0345 -0.0278 -0.3338 0 0 0 0 0 0 -0.0033 -0.1012 -0.051 0 0 0 0.0875 -0.0481 0.0042 0 0 0 0.0345 -0.0278 -0.3338 0 0 0 0 0 0 0.0033 -0.1012 -0.051 0 0 0 
0.225 -0.117 0.7264 -4.0615 -3.1311 -89.7005 0.0002 -0.0324 0.077 -0.1949 -0.5144 -0.548 0.0002 -0.0011 0.1035 2.0856 0.9535 -0.6019 0 0 0 0 -0.0477 0.1655 15.78 -0.926 -2.4464 -31.7464 0.7697 2.1983 0 -0.0436 0.0633 0 -0.0001 0 1.5116 -0.0662 -5.0132 0 -0.0001 0.0001 1.5489 -0.0557 -4.1118 0 0 0.0001 -0.0184 -0.0581 0.1069 0.6416 -4.6223 -3.8116 -0.1356 -0.0037 -0.0169 29.4638 -16.2449 7.5817 -0.1336 0.0017 -0.1531 1.2421 1.3117 20.2436 -0.1086 -0.1549 -0.1038 -8.0588 33.0406 -7.8445 2.7836 -8.6298 -9.0599 8.3139 -8.3737 4.2373 13.8446 -10.5247 8.1363 -4.0831 -6.1084 3.0962 14.685 -18.4806 10.0065 12.2169 -17.3205 8.7152 -7.5365 -5.5416 4.6952 12.9968 -19.939 6.1175 9.431 -20.0286 6.5058 -11.6274 -10.3518 4.4698 9.9195 -19.0825 1.5623 11.9972 -23.7718 4.7539 -13.5561 -38.6726 -24.1941 16.0465 15.5162 -40.5498 10.5595 22.6999 -51.9632 0.0184 -0.0581 0.1069 -0.2748 3.3016 -1.4604 0.1356 -0.0037 -0.0169 28.3837 23.0363 -11.2247 0.1336 0.0017 -0.1531 -0.4152 4.8162 -17.6318 0.1086 -0.1548 -0.1038 -4.0449 -48.776 -6.9996 42.375 24.1298 -32.1488 46.6538 17.3134 -40.3346 51.5397 16.689 -43.8612 -5.5834 3.9777 -1.8466 13.0192 16.778 -8.3756 10.8306 15.8273 -7.4181 -8.8086 3.3325 -3.9111 11.7008 18.0333 -4.9276 8.2631 18.3169 -5.5255 -12.3598 9.0433 -4.1996 9.3251 17.8349 -1.1555 11.4541 22.7787 -4.4035 -8.9924 33.6429 21.2687 20.0308 -14.3956 39.8642 14.0503 -20.2544 51.6688 -0.0875 -0.0481 0.0042 -12.4084 0.7279 -20.7652 -0.0345 -0.0278 -0.3338 24.0952 3.8629 -3.309 -18.2461 2.1643 -9.5696 -0.0033 -0.1012 -0.051 0 0 0 0.0875 -0.0481 0.0042 -17.4958 4.4893 7.3485 0.0345 -0.0278 -0.3338 17.8948 -1.2481 2.0843 -3.4183 0.4764 3.3297 0.0033 -0.1012 -0.051 0 0 0 
0.225 -0.117 0.7264 -4.0615 -3.1311 -89.7005 0.0002 -0.0324 0.077 -0.1949 -0.5144 -0.5479 0.0002 -0.0011 0.1035 2.0856 0.9535 -0.6019 0 0 0 0 -0.0477 0.1655 15.78 -0.926 -2.4464 -31.7464 0.7697 2.1983 0 -0.0436 0.0633 0 -0.0001 0 1.5115 -0.0662 -5.0132 0 -0.0001 0.0001 1.5489 -0.0557 -4.1118 0 0 0.0001 -0.0184 -0.0581 0.1069 0.6416 -4.6223 -3.8116 -0.1356 -0.0037 -0.0169 29.4638 -16.2449 7.5817 -0.1336 0.0017 -0.1531 1.2421 1.3117 20.2436 -0.1086 -0.1549 -0.1038 -8.0588 33.0407 -7.8445 2.7836 -8.6298 -9.0599 8.3139 -8.3737 4.2373 13.8447 -10.5247 8.1363 -4.0831 -6.1084 3.0962 14.685 -18.4806 10.0065 12.2168 -17.3205 8.7151 -7.5366 -5.5416 4.6952 12.9968 -19.9389 6.1175 9.431 -20.0286 6.5059 -11.6274 -10.3518 4.4698 9.9195 -19.0825 1.5623 11.9972 -23.7718 4.7539 -13.5561 -38.6726 -24.1941 16.0464 15.5162 -40.5497 10.5595 22.6999 -51.9632 0.0184 -0.0581 0.1069 -0.2748 3.3015 -1.4604 0.1356 -0.0037 -0.0169 28.3837 23.0363 -11.2247 0.1336 0.0017 -0.1531 -0.4152 4.8162 -17.6318 0.1086 -0.1548 -0.1038 -4.0449 -48.776 -6.9997 42.375 24.1298 -32.1488 46.6538 17.3134 -40.3345 51.5397 16.689 -43.8612 -5.5834 3.9777 -1.8466 13.0192 16.778 -8.3756 10.8306 15.8273 -7.4181 -8.8086 3.3325 -3.9111 11.7008 18.0333 -4.9276 8.2631 18.3169 -5.5255 -12.3598 9.0433 -4.1996 9.3251 17.8349 -1.1555 11.4541 22.7786 -4.4035 -8.9924 33.6429 21.2687 20.0309 -14.3957 39.8643 14.0503 -20.2544 51.6687 -0.0875 -0.0481 0.0042 -12.4084 0.7279 -20.7652 -0.0345 -0.0278 -0.3338 24.0952 3.8629 -3.309 -18.2461 2.1643 -9.5696 -0.0033 -0.1012 -0.051 0 0 0 0.0875 -0.0481 0.0042 -17.4958 4.4893 7.3485 0.0345 -0.0278 -0.3338 17.8948 -1.2481 2.0843 -3.4183 0.4764 3.3297 0.0033 -0.1012 -0.051 0 0 0 
0.225 -0.117 0.7264 -4.0615 -3.1311 -89.7005 0.0002 -0.0324 0.077 -0.1949 -0.5144 -0.5479 0.0002 -0.0011 0.1035 2.0856 0.9535 -0.6019 0 0 0 0 -0.0477 0.1655 15.78 -0.9261 -2.4464 -31.7464 0.7697 2.1983 0 -0.0436 0.0633 0 -0.0001 0.0001 1.5115 -0.0663 -5.0131 0 -0.0001 0.0001 1.5489 -0.0557 -4.1118 0 -0.0001 0.0001 -0.0184 -0.0581 0.1069 0.6416 -4.6223 -3.8116 -0.1356 -0.0037 -0.0169 29.4638 -16.2449 7.5817 -0.1336 0.0017 -0.1531 1.2421 1.3117 20.2436 -0.1086 -0.1549 -0.1038 -8.0588 33.0407 -7.8445 2.7836 -8.6298 -9.0599 8.3139 -8.3737 4.2373 13.8446 -10.5247 8.1363 -4.0831 -6.1084 3.0962 14.685 -18.4806 10.0065 12.2169 -17.3205 8.7151 -7.5365 -5.5416 4.6953 12.9968 -19.939 6.1175 9.431 -20.0286 6.5058 -11.6274 -10.3518 4.4698 9.9195 -19.0825 1.5623 11.9971 -23.7718 4.7539 -13.5561 -38.6726 -24.1941 16.0464 15.5162 -40.5498 10.5595 22.6999 -51.9632 0.0184 -0.0581 0.1069 -0.2748 3.3015 -1.4604 0.1356 -0.0037 -0.0169 28.3837 23.0363 -11.2247 0.1336 0.0017 -0.1531 -0.4152 4.8162 -17.6318 0.1086 -0.1548 -0.1038 -4.0449 -48.776 -6.9996 42.375 24.1298 -32.1488 46.6538 17.3133 -40.3345 51.5397 16.689 -43.8612 -5.5834 3.9777 -1.8466 13.0192 16.778 -8.3756 10.8306 15.8273 -7.418 -8.8086 3.3325 -3.9111 11.7008 18.0333 -4.9276 8.2632 18.3169 -5.5255 -12.3598 9.0433 -4.1996 9.3251 17.8349 -1.1555 11.4541 22.7787 -4.4035 -8.9924 33.6429 21.2687 20.0309 -14.3957 39.8643 14.0503 -20.2544 51.6687 -0.0875 -0.0481 0.0042 -12.4084 0.7279 -20.7652 -0.0345 -0.0278 -0.3338 24.0952 3.8629 -3.309 -18.2461 2.1643 -9.5696 -0.0033 -0.1012 -0.051 0 0 0 0.0875 -0.0481 0.0042 -17.4958 4.4893 7.3485 0.0345 -0.0278 -0.3338 17.8948 -1.2481 2.0843 -3.4183 0.4764 3.3297 0.0033 -0.1012 -0.051 0 0 0 
0.2252 -0.1169 0.7262 -4.0408 -3.1033 -89.6622 0.0002 -0.0324 0.077 -0.1981 -0.5106 -0.5469 0.0002 -0.0011 0.1035 2.0822 0.9531 -0.6009 0 0 0 0 -0.0478 0.1656 15.7817 -0.9229 -2.4325 -31.6675 0.8887 2.2484 0 -0.0436 0.0633 0 -0.0001 0.0001 1.5092 -0.0664 -5.0363 0 -0.0001 0 1.5466 -0.056 -4.1367 0 0 0.0001 -0.0184 -0.0582 0.1069 0.6431 -4.6224 -3.8158 -0.1356 -0.0037 -0.0169 29.5163 -16.2071 7.5444 -0.1336 0.0017 -0.1531 1.2054 1.2963 20.2937 -0.1086 -0.1549 -0.1038 -8.0475 33.0063 -7.8586 3.2792 -8.5317 -9.2073 8.4479 -8.4546 4.3597 13.9043 -10.5551 8.1912 -3.6063 -5.9774 2.9901 14.7971 -18.5792 10.1303 12.1956 -17.3007 8.6918 -7.195 -5.4731 4.6121 13.0751 -20.0393 6.202 9.4082 -19.999 6.4822 -11.3418 -10.3311 4.4602 9.9742 -19.1791 1.6171 11.9933 -23.766 4.75 -13.5873 -38.6782 -24.2253 16.0464 15.5162 -40.5498 10.5595 22.6999 -51.9632 0.0184 -0.0582 0.1069 -0.2748 3.3016 -1.4613 0.1356 -0.0037 -0.0169 28.4356 23.0423 -11.216 0.1336 0.0017 -0.1531 -0.4315 4.8153 -17.6994 0.1086 -0.1548 -0.1038 -3.9358 -48.7653 -6.9231 42.3813 24.1011 -32.0772 46.6306 17.315 -40.3128 51.5134 16.6925 -43.8365 -5.0996 3.8002 -1.695 13.0923 16.847 -8.4566 10.8159 15.8127 -7.4018 -8.4974 3.2468 -3.8169 11.7579 18.111 -4.9895 8.2465 18.2942 -5.5082 -12.1593 8.9718 -4.1695 9.3409 17.8635 -1.1712 11.4305 22.7424 -4.38 -9.0294 33.6512 21.3063 20.0309 -14.3956 39.8642 14.0502 -20.2544 51.6688 -0.0875 -0.0481 0.0042 -12.4454 0.7223 -20.7871 -0.0345 -0.0278 -0.3338 24.2077 3.8693 -3.3265 -18.2857 2.1739 -9.5678 -0.0033 -0.1012 -0.051 0 0 0 0.0875 -0.0481 0.0042 -17.5409 4.4712 7.3196 0.0345 -0.0278 -0.3338 18.0075 -1.2531 2.0984 -3.457 0.4909 3.308 0.0033 -0.1012 -0.051 0 0 0 
0.2253 -0.1168 0.7261 -4.0253 -3.0811 -89.6411 0.0002 -0.0324 0.077 -0.1953 -0.5081 -0.5482 0.0002 -0.001 0.1035 2.0806 0.9512 -0.6025 0 0 0 0 -0.0478 0.1656 15.7823 -0.9216 -2.4289 -31.6182 0.939 2.2614 0 -0.0436 0.0633 0 -0.0001 0 1.5061 -0.0664 -5.044 0 0 0 1.5435 -0.0559 -4.1453 0 0 0.0001 -0.0184 -0.0582 0.107 0.6442 -4.6224 -3.8199 -0.1356 -0.0037 -0.0169 29.5561 -16.1982 7.5053 -0.1336 0.0017 -0.1531 1.1821 1.2912 20.3237 -0.1086 -0.1549 -0.1038 -8.0386 33.0076 -7.8703 3.3311 -8.5467 -9.1913 8.4943 -8.4825 4.4021 13.9313 -10.5688 8.216 -3.558 -5.9925 3.0016 14.8384 -18.6154 10.1759 12.1946 -17.2997 8.6907 -7.1535 -5.4896 4.6161 13.1051 -20.0778 6.2345 9.4059 -19.996 6.4798 -11.304 -10.3475 4.4663 9.9916 -19.2097 1.6345 11.9919 -23.764 4.7487 -13.5872 -38.6783 -24.2253 16.0464 15.5162 -40.5498 10.5595 22.7 -51.9632 0.0184 -0.0582 0.107 -0.2747 3.3015 -1.4605 0.1356 -0.0037 -0.0169 28.4818 23.0544 -11.1997 0.1336 0.0017 -0.1531 -0.4456 4.8187 -17.7465 0.1086 -0.1548 -0.1038 -3.8772 -48.7525 -6.8764 42.374 24.099 -32.0641 46.6235 17.3155 -40.3062 51.5057 16.6936 -43.8294 -5.0575 3.801 -1.6941 13.1197 16.8728 -8.487 10.8144 15.8113 -7.4002 -8.4619 3.2532 -3.815 11.7799 18.1408 -5.0132 8.2441 18.2909 -5.5057 -12.1326 8.9717 -4.169 9.3487 17.8775 -1.1789 11.4255 22.7347 -4.3751 -9.0294 33.6512 21.3063 20.0309 -14.3957 39.8643 14.0502 -20.2544 51.6687 -0.0875 -0.0481 0.0042 -12.4428 0.7098 -20.789 -0.0345 -0.0278 -0.3338 24.2389 3.8701 -3.3311 -18.2929 2.183 -9.5793 -0.0033 -0.1012 -0.051 0 0 0 0.0875 -0.0481 0.0042 -17.5636 4.455 7.2999 0.0345 -0.0278 -0.3338 18.0728 -1.2556 2.1066 -3.4782 0.5064 3.2995 0.0033 -0.1012 -0.051 0 0 0 
0.2254 -0.1168 0.7261 -4.0207 -3.0663 -89.6365 0.0002 -0.0324 0.077 -0.1916 -0.5068 -0.5489 0.0002 -0.001 0.1034 2.0752 0.9497 -0.6034 0 0 0 0 -0.0478 0.1656 15.7844 -0.9197 -2.4235 -31.5771 0.9795 2.2748 0 -0.0436 0.0633 0 -0.0001 0.0001 1.5032 -0.0663 -5.0479 0 0 0 1.5406 -0.0559 -4.1497 0 0 0.0001 -0.0184 -0.0582 0.107 0.645 -4.6226 -3.8234 -0.1356 -0.0037 -0.0169 29.5808 -16.1847 7.4812 -0.1336 0.0017 -0.1531 1.1655 1.2899 20.3476 -0.1086 -0.1549 -0.1038 -7.9989 32.9976 -7.903 3.3604 -8.5539 -9.1838 8.5181 -8.4968 4.4237 13.9463 -10.5764 8.2299 -3.5305 -5.9998 3.0071 14.8597 -18.6341 10.1995 12.1951 -17.3002 8.6912 -7.13 -5.498 4.6179 13.1209 -20.098 6.2515 9.4056 -19.9957 6.4795 -11.2832 -10.3552 4.469 10.0006 -19.2255 1.6435 11.9918 -23.7638 4.7485 -13.5873 -38.6782 -24.2254 16.0464 15.5162 -40.5498 10.5595 22.6999 -51.9632 0.0184 -0.0582 0.107 -0.2745 3.3015 -1.4598 0.1356 -0.0037 -0.0169 28.511 23.0767 -11.1963 0.1336 0.0017 -0.1531 -0.4331 4.823 -17.7354 0.1086 -0.1548 -0.1038 -3.8886 -48.7379 -6.8811 42.3707 24.0977 -32.0576 46.6202 17.3158 -40.3031 51.502 16.694 -43.8259 -5.0324 3.8013 -1.6935 13.1344 16.8866 -8.5033 10.8147 15.8115 -7.4005 -8.4411 3.2568 -3.8139 11.7917 18.157 -5.026 8.2437 18.2904 -5.5053 -12.1171 8.9719 -4.1688 9.3532 17.8857 -1.1834 11.4237 22.7319 -4.3733 -9.0295 33.6512 21.3063 20.0309 -14.3957 39.8642 14.0503 -20.2544 51.6688 -0.0875 -0.0481 0.0042 -12.4366 0.706 -20.7898 -0.0345 -0.0278 -0.3338 24.2452 3.8722 -3.3324 -18.2889 2.1761 -9.5816 -0.0033 -0.1012 -0.051 0 0 0 0.0875 -0.0481 0.0042 -17.5736 4.4493 7.2953 0.0345 -0.0278 -0.3338 18.1077 -1.2558 2.1108 -3.4833 0.5051 3.2996 0.0033 -0.1012 -0.051 0 0 0 
